<svg width="32" height="32" fill="none" xmlns="http://www.w3.org/2000/svg"><path fill-rule="evenodd" clip-rule="evenodd" d="M24.395 15.96a2.654 2.654 0 0 1-2.333 1.373h-9.934L10.662 20h16v2.667h-16c-2.027 0-3.307-2.174-2.334-3.96l1.8-3.254-4.8-10.12H2.662V2.667h4.36l1.253 2.666h19.733c1.014 0 1.654 1.094 1.16 1.974l-4.773 8.653ZM25.742 8h-16.2l3.16 6.667h9.36L25.742 8Zm-15.08 16a2.663 2.663 0 0 0-2.654 2.667 2.663 2.663 0 0 0 2.654 2.666c1.466 0 2.666-1.2 2.666-2.666 0-1.467-1.2-2.667-2.666-2.667Zm10.68 2.667A2.663 2.663 0 0 1 23.995 24c1.467 0 2.667 1.2 2.667 2.667 0 1.466-1.2 2.666-2.667 2.666a2.663 2.663 0 0 1-2.653-2.666Z" fill="#ED3237"/></svg>